<svg id="Ebene_1" data-name="Ebene 1" xmlns="http://www.w3.org/2000/svg" viewBox="0 0 3835.6 1236.32"><defs><style>.cls-1{fill:#a1b2a5;}.cls-2{fill:#1b2a33;}</style></defs><path class="cls-1" d="M1511.8,759.1v381.37h-76.5V892.41l-102.17,248.06h-57.92L1172.49,892.41v248.06H1096V759.1h86.87l121.3,283.57,121.3-283.57ZM1664,820.84v95.61h128.4V977.1H1664v101.08h144.8v62.29H1587.47V758.55h221.29v62.29Zm290.68,0v95.61H2083V977.1h-128.4v101.08h144.79v62.29H1878.14V758.55h221.29v62.29Zm474-61.74v61.74H2327v319.63h-76.49V820.84H2148.88V759.1Z" transform="translate(-1096 -262)"/><path class="cls-1" d="M4010.94,759.1v61.74H3909.32v319.63h-76.5V820.84H3731.2V759.1Zm132.23,0v381.37h-76.49V759.1Zm491.47,0v381.37h-76.5V892.41L4456,1140.47h-57.91L4295.34,892.41v248.06h-76.5V759.1h86.88L4427,1042.67l121.3-283.57Zm152.16,61.74v95.61h128.4V977.1H4786.8v101.08h144.8v62.29H4710.31V758.55H4931.6v62.29Z" transform="translate(-1096 -262)"/><path class="cls-1" d="M3082.64,427.44a535.08,535.08,0,1,0,204.9,40.71A535.76,535.76,0,0,0,3082.64,427.44ZM2654.28,962.9a432.5,432.5,0,0,1,11.2-95.35l256.53,256v53.55a107.26,107.26,0,0,0,107.09,107.09v103.27A428.07,428.07,0,0,1,2654.28,962.9Zm743.63,289a105.75,105.75,0,0,0-38.25-53.82,108.51,108.51,0,0,0-62.84-21h-53.54V1016.44a53.16,53.16,0,0,0-53.55-53.54H2868.46V855.81h107.09a53.18,53.18,0,0,0,53.55-53.55V695.17h107.09a107.28,107.28,0,0,0,107.09-107.09V566.22a427.79,427.79,0,0,1,155.17,685.71Z" transform="translate(-1096 -262)"/><path class="cls-2" d="M2841.35,733.54a810.1,810.1,0,0,1-95.89-92.61c-44-50-96.16-124.58-96.16-195.61,0-74,46.71-141,118.56-169.38s154.35-12.56,209.27,39.89c36.06,34.15,56.55,80.86,56.27,129.49,0,71-52.17,145.61-96.16,195.61A809.34,809.34,0,0,1,2841.35,733.54Zm0-366.63c-29.5,0-56.55,15-71.3,39.35a75,75,0,0,0,0,78.4c14.75,24.31,41.8,39.34,71.3,39.34,45.35,0,82.23-35.24,82.23-78.68C2923.58,402.16,2886.7,366.91,2841.35,366.91Z" transform="translate(-1096 -262)"/></svg>