<svg id="Ebene_1" data-name="Ebene 1" xmlns="http://www.w3.org/2000/svg" viewBox="0 0 394.1 122.75"><defs><style>.cls-1{fill:#c4c4c4;}</style></defs><path d="M0,86H7.86V60.49L18.41,86h5.95l10.5-25.48V86h7.86V46.79H33.85L21.39,75.93,8.93,46.79H0ZM73.23,46.73H50.49V86H73.23v-6.4H58.35V69.19h13.2V63H58.35V53.13H73.23Zm29.88,0H80.37V86h22.74v-6.4H88.23V69.19h13.19V63H88.23V53.13h14.88Zm5.06,6.4h10.45V86h7.86V53.13h10.44V46.79H108.17Z"/><path d="M270.76,53.13h10.45V86h7.85V53.13h10.45V46.79H270.76ZM305.24,86h7.86V46.79h-7.86Zm15.63,0h7.85V60.49L339.28,86h6l10.5-25.48V86h7.86V46.79h-8.87L342.25,75.93,329.79,46.79h-8.92ZM394.1,46.73H371.36V86H394.1v-6.4H379.22V69.19h13.19V63H379.22V53.13H394.1Z"/><path d="M204.12,12.71a55,55,0,1,0,21.06,4.19A55,55,0,0,0,204.12,12.71Zm-44,55a44.18,44.18,0,0,1,1.16-9.79l26.35,26.29v5.51a11,11,0,0,0,11,11v10.62a44,44,0,0,1-38.51-43.63Zm76.42,29.71a11,11,0,0,0-10.4-7.7h-5.5V73.23a5.5,5.5,0,0,0-5.5-5.5h-33v-11h11a5.51,5.51,0,0,0,5.5-5.51v-11h11a11,11,0,0,0,11-11V27a44,44,0,0,1,16,70.48Z"/><path class="cls-1" d="M182.93,48.43a81.28,81.28,0,0,1-9.86-9.5c-4.51-5.14-9.87-12.79-9.87-20.09A18.85,18.85,0,0,1,175.38,1.43a20.44,20.44,0,0,1,21.51,4.09,18.28,18.28,0,0,1,5.77,13.32c0,7.3-5.35,15-9.86,20.09A82.1,82.1,0,0,1,182.93,48.43Zm0-37.66a8.53,8.53,0,0,0-7.32,4,7.75,7.75,0,0,0,0,8.07,8.54,8.54,0,0,0,7.32,4,8.27,8.27,0,0,0,8.46-8.07A8.27,8.27,0,0,0,182.93,10.77Z"/></svg>