<svg id="Ebene_1" data-name="Ebene 1" xmlns="http://www.w3.org/2000/svg" viewBox="0 0 1366 768"><defs><style>.cls-1{fill:#a1b2a5;}.cls-2{fill:#1b2a33;}</style></defs><path class="cls-1" d="M179.57,343.19V471.45H153.85V388l-34.37,83.43H100L65.46,388v83.43H39.73V343.19H69l40.79,95.37,40.8-95.37ZM230.75,364v32.16h43.18v20.4H230.75v34h48.7v20.95H205V343h74.43V364Zm97.76,0v32.16h43.18v20.4H328.51v34h48.7v20.95H302.78V343h74.43V364Zm159.41-20.76V364H453.74v107.5H428V364H393.84V343.19Z"/><path class="cls-1" d="M1020.09,343.19V364H985.91v107.5H960.19V364H926V343.19Zm44.47,0V471.45h-25.72V343.19Zm165.3,0V471.45h-25.73V388l-34.36,83.43h-19.48L1115.74,388v83.43H1090V343.19h29.21l40.8,95.37,40.79-95.37ZM1281,364v32.16h43.19v20.4H1281v34h48.7v20.95h-74.42V343h74.42V364Z"/><path class="cls-1" d="M707.88,231.64a179.94,179.94,0,1,0,68.92,13.69A180.22,180.22,0,0,0,707.88,231.64ZM563.82,411.73a145.58,145.58,0,0,1,3.76-32.07l86.28,86.09v18a36.09,36.09,0,0,0,36,36v34.73A143.94,143.94,0,0,1,563.82,411.73Zm250.1,97.21a35.54,35.54,0,0,0-12.87-18.1,36.39,36.39,0,0,0-21.13-7.08h-18v-54a17.89,17.89,0,0,0-18-18h-108v-36h36a17.89,17.89,0,0,0,18-18v-36h36a36.09,36.09,0,0,0,36-36v-7.35A143.89,143.89,0,0,1,814.1,508.94Z"/><path class="cls-2" d="M626.73,334.59a272.31,272.31,0,0,1-32.25-31.15c-14.79-16.81-32.34-41.9-32.34-65.78,0-24.9,15.71-47.41,39.88-57s51.91-4.23,70.38,13.41a59.6,59.6,0,0,1,18.92,43.56c0,23.88-17.54,49-32.34,65.78A272.31,272.31,0,0,1,626.73,334.59Zm0-123.3a28,28,0,0,0-24,13.23,25.23,25.23,0,0,0,0,26.37,28,28,0,0,0,24,13.23c15.25,0,27.66-11.86,27.66-26.46S642,211.29,626.73,211.29Z"/></svg>